<svg xmlns="http://www.w3.org/2000/svg" viewBox="0 0 256 256">
  <rect width="256" height="256" fill="#fdfbf7"/>
  
  <path d="M70 50h85a18 18 0 0 1 18 18v118a10 10 0 0 1-10 10H70a18 18 0 0 1-18-18V68a18 18 0 0 1 18-18z"
        fill="none" stroke="#2c2c2c" stroke-width="10" stroke-linecap="round" stroke-linejoin="round"/>

  <path d="M155 50h31a18 18 0 0 1 18 18v118a10 10 0 0 1-10 10h-39"
        fill="none" stroke="#2c2c2c" stroke-width="10" stroke-linecap="round" stroke-linejoin="round"/>

  <line x1="70" y1="94" x2="168" y2="94"
        stroke="#2c2c2c" stroke-width="6" stroke-linecap="round"/>
  <line x1="70" y1="124" x2="148" y2="124"
        stroke="#2c2c2c" stroke-width="6" stroke-linecap="round"/>
</svg>
